<?xml version="1.0" encoding="UTF-8"?>
<svg version="1.1" xmlns="http://www.w3.org/2000/svg" width="1181" height="1181">
<path d="M0 0 C1.40798473 -0.00702257 2.81596914 -0.01410938 4.22395325 -0.02125549 C8.69618186 -0.04064575 13.16835858 -0.04568935 17.640625 -0.046875 C18.78362627 -0.04753778 18.78362627 -0.04753778 19.94971848 -0.04821396 C42.73836803 -0.05514448 65.25891331 0.27173552 87.890625 3.203125 C89.28435659 3.37232253 90.67824221 3.54025518 92.07226562 3.70703125 C126.29482428 7.8392291 159.9560911 15.04114202 192.890625 25.203125 C193.5541095 25.40723999 194.21759399 25.61135498 194.90118408 25.82165527 C227.41494036 35.86245249 258.52462702 48.88149032 288.890625 64.203125 C289.79296875 64.6563916 290.6953125 65.1096582 291.625 65.57666016 C322.40157633 81.12623861 351.53929222 100.23668842 378.890625 121.203125 C379.83929443 121.92653076 379.83929443 121.92653076 380.80712891 122.66455078 C393.04542084 132.02627977 404.69234861 142.0476664 415.9765625 152.53515625 C417.48154621 153.91304348 418.99030069 155.28802083 420.54370117 156.61108398 C426.89916576 162.02425307 432.7566155 167.91792797 438.64526367 173.82739258 C440.44924585 175.63673433 442.25851165 177.44066819 444.06835938 179.24414062 C449.89060129 185.06307678 455.56138053 190.92350341 460.890625 197.203125 C462.3038605 198.7479376 463.72002909 200.29007825 465.140625 201.828125 C469.68784951 206.86777314 473.8558493 212.15083364 478.01171875 217.51171875 C480.39228142 220.58008964 482.825579 223.60131477 485.27539062 226.61450195 C540.40206727 294.6287552 578.46543485 378.05609018 604.265625 503.265625 C604.44816833 504.4790004 604.44816833 504.4790004 604.63439941 505.71688843 C607.54318095 525.28612394 609.21177413 544.57192134 609.2265625 564.36328125 C609.23302328 566.44803448 609.23975377 568.5327869 609.24673462 570.61753845 C609.25861015 574.96485484 609.26242608 579.31209241 609.26123047 583.65942383 C609.26106883 588.03687222 609.27482858 592.41389804 609.30224609 596.79125977 C609.4653381 623.23238049 608.79977058 649.02512286 604.890625 675.203125 C604.69417526 676.53886908 604.49783205 677.87462884 604.30158997 679.21040344 C591.90037394 762.92701418 561.5725973 843.57647216 484.890625 956.203125 C484.31521973 956.92725586 483.73981445 957.65138672 483.14697266 958.39746094 C479.44704607 963.04328917 475.69259791 967.64051332 471.890625 972.203125 C471.40174805 972.79109863 470.91287109 973.37907227 470.40917969 973.98486328 C458.48276492 988.27030538 445.58514519 1001.5950372 432.453125 1014.765625 C431.93874878 1015.28268005 431.42437256 1015.79973511 430.89440918 1016.3324585 C425.0728514 1022.17703465 419.16829403 1027.84463049 412.890625 1033.203125 C411.28294127 1034.65758017 409.67822785 1036.11533395 408.078125 1037.578125 C380.68323557 1062.23766995 349.81872256 1083.85900778 317.890625 1102.203125 C317.01809082 1102.70634277 316.14555664 1103.20956055 315.24658203 1103.72802734 C244.60529688 1144.30919115 168.02070324 1169.10523162 87.1875 1179.22265625 C86.51151764 1179.30778976 85.83553528 1179.39292328 85.1390686 1179.4806366 C83.05764698 1179.7353884 80.97463315 1179.97053592 78.890625 1180.203125 C77.79354469 1180.33908836 77.79354469 1180.33908836 76.67430115 1180.47779846 C66.70267768 1181.57280213 56.6629493 1181.40743005 46.64453125 1181.44140625 C45.61836134 1181.44548178 44.59219143 1181.4495573 43.53492546 1181.45375633 C38.07935674 1181.47455749 32.62381255 1181.48887223 27.16821289 1181.49829102 C22.73610284 1181.50705728 18.30431594 1181.52771465 13.87231445 1181.55981445 C-80.38202398 1182.22736203 -170.6765276 1159.47953422 -378.1953125 1029.87109375 C-379.70029621 1028.49320652 -381.20905069 1027.11822917 -382.76245117 1025.79516602 C-389.11791576 1020.38199693 -394.9753655 1014.48832203 -400.86401367 1008.57885742 C-402.66799585 1006.76951567 -404.47726165 1004.96558181 -406.28710938 1003.16210938 C-412.10935129 997.34317322 -417.78013053 991.48274659 -423.109375 985.203125 C-424.5226105 983.6583124 -425.93877909 982.11617175 -427.359375 980.578125 C-431.90659951 975.53847686 -436.0745993 970.25541636 -440.23046875 964.89453125 C-442.61103142 961.82616036 -445.044329 958.80493523 -447.49414062 955.79174805 C-502.61155006 887.7889285 -540.70841994 804.34572612 -568.81512451 662.49084473 C-569.08787819 660.37025702 -569.36977641 658.25106734 -569.65283203 656.13183594 C-575.08913572 613.64553005 -575.05814342 566.74386455 -569.38800049 524.29162598 C-569.08675654 522.03358318 -568.79702067 519.77420033 -568.50732422 517.51464844 C-564.08922125 483.50700966 -557.38839714 449.94750131 -547.109375 417.203125 C-546.90763672 416.55986267 -546.70589844 415.91660034 -546.49804688 415.25384521 C-537.4001234 386.33032178 -526.17902574 358.57575335 -513.109375 331.203125 C-512.68833496 330.3157666 -512.26729492 329.4284082 -511.83349609 328.51416016 C-505.04395417 314.28155214 -497.20242715 300.72846755 -489.109375 287.203125 C-488.37219238 285.96103271 -488.37219238 285.96103271 -487.62011719 284.69384766 C-473.4500576 260.83710754 -457.22806109 238.29266511 -439.53320312 216.93115234 C-438.24873623 215.3722606 -436.98258563 213.79832061 -435.71875 212.22265625 C-431.2019478 206.59290099 -426.46810802 201.23023957 -421.53295898 195.96801758 C-418.9823849 193.24778224 -416.49988788 190.49538564 -414.08203125 187.65625 C-409.15280794 181.9953451 -403.79945667 176.74411547 -398.48510742 171.44848633 C-396.67576567 169.64450415 -394.87183181 167.83523835 -393.06835938 166.02539062 C-387.24987408 160.20354966 -381.39335211 154.52666475 -375.109375 149.203125 C-373.50169127 147.74866983 -371.89697785 146.29091605 -370.296875 144.828125 C-342.88367732 120.15209986 -312.01546051 98.62377254 -280.109375 80.203125 C-279.51237793 79.85652832 -278.91538086 79.50993164 -278.30029297 79.15283203 C-200.1057907 33.91924103 -113.26343862 7.11075935 0 0 Z " fill="#B76F57" transform="translate(572.109375,-0.203125)"/>
<path d="M0 0 C6.84386338 5.34352234 10.00469213 12.49070108 13.37890625 20.24609375 C13.96285156 21.47972656 13.96285156 21.47972656 14.55859375 22.73828125 C17.655561 29.67644819 19.01230541 37.06159302 20.546875 44.46484375 C21.17041473 48.03290425 21.17041473 48.03290425 22.37890625 50.24609375 C22.47600187 52.05262183 22.50967007 53.86274066 22.51171875 55.671875 C22.51405518 56.77200928 22.5163916 57.87214355 22.51879883 59.00561523 C22.49470861 64.75290865 22.45706322 70.49925738 22.37890625 76.24609375 C22.35376953 78.19902344 22.35376953 78.19902344 22.328125 80.19140625 C21.61164866 95.87200275 16.2846175 110.81905912 8.37890625 124.24609375 C7.858125 125.14070312 7.33734375 126.0353125 6.80078125 126.95703125 C1.99808969 134.06404452 -5.18448344 137.47020422 -12.62109375 141.24609375 C-13.51828125 141.76558594 -14.41546875 142.28507813 -15.33984375 142.8203125 C-21.8899011 146.348044 -27.938734 146.84638234 -35.25292969 146.88256836 C-40.11787379 146.94271482 -43.38811437 147.57430317 -47.62109375 150.24609375 C-49.96435039 152.79749228 -49.96435039 152.79749228 -51.62109375 155.24609375 C-56.45876074 154.83143658 -58.47755751 152.82623225 -61.62109375 149.24609375 C-63.05908707 146.37010711 -62.7693747 143.88152497 -62.7890625 140.66796875 C-62.79329727 139.9984317 -62.79753204 139.32889465 -62.80189514 138.6390686 C-62.81190587 136.42468189 -62.81178326 134.21049949 -62.80859375 131.99609375 C-62.8079895 131.23113586 -62.80738525 130.46617798 -62.8067627 129.67803955 C-62.7667839 110.92652406 -61.63626386 92.31526399 -59.59765625 73.67578125 C-59.32215594 71.13821997 -59.0472754 68.60059427 -58.77331543 66.06286621 C-58.58904946 64.35676292 -58.40359103 62.65078799 -58.21691895 60.94494629 C-56.74655638 47.31156674 -56.26891186 33.88498667 -56.76904297 20.18066406 C-56.98271057 11.9590621 -56.77683693 4.19088346 -51.24267578 -2.39404297 C-36.93211067 -15.39728076 -13.93061467 -9.32167807 0 0 Z " fill="#2B2827" transform="translate(338.62109375,503.75390625)"/>
<path d="M0 0 C0 0.66 0 1.32 0 2 C0.680625 2.185625 1.36125 2.37125 2.0625 2.5625 C9.03924918 5.97665385 13.04694527 11.70624487 15.91943359 18.79370117 C19.35283693 28.98142959 19.36375753 40.10338079 19.375 50.75 C19.39949219 51.98621094 19.42398438 53.22242188 19.44921875 54.49609375 C19.48559995 65.90766484 16.3806339 75.1942437 9 84 C6.16468401 86.60959949 3.28181935 89.1107462 0.29296875 91.54296875 C-2.41058225 94.43995951 -2.79859069 96.09371944 -3 100 C-2.63141012 102.76864953 -2.63141012 102.76864953 -2 105 C-1.34 105 -0.68 105 0 105 C1.0887149 107.12238241 2.17094107 109.2477124 3.25 111.375 C3.55035156 111.95894531 3.85070312 112.54289063 4.16015625 113.14453125 C5.9285241 116.64364211 7.47868374 120.1579656 8.890625 123.81640625 C11.03768483 129.28505719 13.71396218 134.39656339 16.5 139.5625 C19.55612412 145.25421891 22.48074611 150.93089059 25.05273438 156.85864258 C26.58358152 160.31922514 28.29074862 163.68739619 30 167.0625 C30.66666667 168.38671875 31.33333333 169.7109375 32 171.03515625 C32.32645508 171.68202393 32.65291016 172.3288916 32.98925781 172.99536133 C34.05289425 175.10490693 35.11349745 177.21593602 36.171875 179.328125 C36.4925293 179.96782227 36.81318359 180.60751953 37.14355469 181.26660156 C39.17297808 185.37404343 40.2642285 188.37600132 40 193 C25.7405288 189.00817112 14.93976623 172.69410314 6.13183594 161.29125977 C2.52417224 156.6261109 -1.23432261 152.11370028 -5.07055664 147.63549805 C-8.58567506 143.52341281 -11.94839761 139.31115473 -15.24609375 135.0234375 C-16.91282549 132.93312697 -16.91282549 132.93312697 -19.09765625 131.5390625 C-21 130 -21 130 -21.91796875 127.671875 C-23.33794465 124.16550852 -25.70232785 121.89767586 -28.3125 119.25 C-32.33473492 115.04033507 -35.53371948 111.02486476 -38.09765625 105.7421875 C-38.98557996 103.81263295 -38.98557996 103.81263295 -41 102 C-45.34194936 102.09695116 -45.34194936 102.09695116 -49 104 C-49.20956883 105.78715644 -49.36811616 107.58043769 -49.5 109.375 C-49.73236344 112.52020509 -49.99875969 114.99627907 -51 118 C-51.18181647 119.33979692 -51.32543253 120.68501502 -51.44287109 122.03198242 C-51.51631744 122.84435867 -51.58976379 123.65673492 -51.66543579 124.49372864 C-51.74232635 125.37622787 -51.81921692 126.25872711 -51.8984375 127.16796875 C-52.62662537 135.15791652 -53.4195765 143.137447 -54.2890625 151.11328125 C-54.39837097 152.1164035 -54.50767944 153.11952576 -54.62030029 154.15304565 C-54.9541146 157.20631713 -55.28951181 160.25941205 -55.625 163.3125 C-55.85690407 165.43292814 -56.0886755 167.55337079 -56.3203125 169.67382812 C-56.87868777 174.78271974 -57.43882844 179.89141481 -58 185 C-60.328125 185.64453125 -60.328125 185.64453125 -63 186 C-65.56411708 183.84381063 -67.49549813 182.00900373 -69 179 C-69.04021559 177.33243022 -69.01157193 175.66298258 -68.94921875 173.99609375 C-68.91151367 172.96000977 -68.87380859 171.92392578 -68.83496094 170.85644531 C-68.76196777 169.16406738 -68.76196777 169.16406738 -68.6875 167.4375 C-68.63754883 166.25639648 -68.58759766 165.07529297 -68.53613281 163.85839844 C-67.45054718 139.7892307 -64.77020361 115.90200553 -62.12109375 91.96484375 C-62.02322067 91.07927292 -61.9253476 90.19370209 -61.82450867 89.28129578 C-61.25647729 84.18196551 -60.64795376 79.08980376 -60 74 C-59.34 74 -58.68 74 -58 74 C-58.03996094 72.700625 -58.07992187 71.40125 -58.12109375 70.0625 C-58.11986746 63.08734463 -57.20096867 56.22216028 -56.34786987 49.31234741 C-54.90734595 37.63980567 -53.57182776 26.06542776 -53.37109375 14.29296875 C-52.86404941 9.79361743 -51.6891449 6.3807533 -48.1171875 3.4609375 C-31.66172218 -4.50878264 -17.20924722 -5.48345857 0 0 Z " fill="#2A2827" transform="translate(673,482)"/>
<path d="M0 0 C9.44391063 4.65826806 12.8097745 17.64278438 16.625 26.6875 C17.19734375 28.03424805 17.19734375 28.03424805 17.78125 29.40820312 C18.52301772 31.15391509 19.26299607 32.90038873 20.00097656 34.64770508 C20.84861262 36.64354413 21.71523625 38.63130238 22.5859375 40.6171875 C24.21338317 44.51046913 25.62200328 48.45063969 27 52.4375 C27.49919261 53.87397875 27.99919016 55.31017803 28.5 56.74609375 C28.74790283 57.46007324 28.99580566 58.17405273 29.2512207 58.90966797 C29.95232921 60.8669197 30.71170521 62.79125493 31.48046875 64.72265625 C34.01411999 71.41403082 35.4800294 78.49527893 37.13085938 85.4453125 C38.92840519 92.50446736 41.10965761 97.58138249 46 103 C46.78375 103.928125 47.5675 104.85625 48.375 105.8125 C53.22457824 109.8538152 58.79672526 111.22459066 65 112 C63.64084464 116.07746607 61.70703144 116.57039531 58 118.625 C54.28283814 120.50744282 54.28283814 120.50744282 51 123 C51.40485954 130.23578746 53.67475525 136.69867991 56.0625 143.5 C56.4637207 144.65040771 56.86494141 145.80081543 57.27832031 146.98608398 C61.19451141 157.96204916 66.00657416 168.01656876 72 178 C74.38708897 182.18745236 74.58594785 185.22871039 74 190 C73.34 190.66 72.68 191.32 72 192 C69.11904244 191.82567454 67.54718463 191.56734407 65.515625 189.4609375 C65.09796875 188.77257812 64.6803125 188.08421875 64.25 187.375 C63.48429688 186.13363281 63.48429688 186.13363281 62.703125 184.8671875 C62.14109375 183.92101562 61.5790625 182.97484375 61 182 C60.37609375 180.99195313 59.7521875 179.98390625 59.109375 178.9453125 C55.4439278 172.98613386 51.95168729 166.94049178 48.5546875 160.82421875 C47.94753906 159.73109375 47.34039063 158.63796875 46.71484375 157.51171875 C45.51662774 155.34678918 44.32364426 153.17895264 43.13671875 151.0078125 C34.53981469 135.02809032 34.53981469 135.02809032 20 125 C11.50908717 123.99260356 3.59912388 126.88317742 -3.3125 131.8125 C-13.40678833 140.00376676 -18.62905149 150.4951885 -20.30810547 163.36083984 C-20.56053194 165.84327951 -20.78682872 168.326393 -21 170.8125 C-21.71916999 178.9125411 -22.5215175 186.10407205 -28.8125 191.875 C-35.03504153 196.02336102 -40.53765403 198.06210839 -48 197 C-52.22160056 195.30049536 -53.95228284 193.09543431 -56 189 C-56.11663772 182.00173694 -53.2348696 177.05259057 -50 171 C-48.20721426 167.43278469 -46.44712557 163.84923889 -44.67944336 160.26953125 C-42.11051937 155.11051937 -42.11051937 155.11051937 -41 154 C-40.75106473 149.03764232 -40.75106473 149.03764232 -41.49121094 144.17431641 C-44.34924 131.96049356 -42.62829147 117.84074444 -37.95117188 106.43115234 C-35.98151232 101.3967915 -34.29298598 96.25722482 -32.54534912 91.14239502 C-31.8914343 89.23542627 -31.22926851 87.33129313 -30.56689453 85.42724609 C-29.73672797 83.03694445 -28.91502428 80.64368384 -28.10253906 78.24731445 C-27.43661129 76.28595366 -26.75550934 74.32952754 -26.04589844 72.38354492 C-23.61198164 65.27978596 -23.56825294 58.39559652 -23.5 50.9375 C-22.60309875 11.66603831 -22.60309875 11.66603831 -12.640625 1.62109375 C-8.41861064 -0.97082335 -4.79399947 -0.96030036 0 0 Z " fill="#2A2827" transform="translate(771,481)"/>
<path d="M0 0 C0 0.66 0 1.32 0 2 C1.29357422 2.37318359 1.29357422 2.37318359 2.61328125 2.75390625 C6.22813132 4.08393759 9.00784565 5.77340065 12.1875 7.9375 C13.21230469 8.62714844 14.23710938 9.31679688 15.29296875 10.02734375 C20.80566802 14.04453441 20.80566802 14.04453441 21.46875 17.3046875 C21.52476857 21.91221479 21.55201558 24.24864546 18.75 28.0625 C13.87164434 31.49952331 8.83922614 31.47409143 3 31 C0.34409353 30.52954077 -2.29455574 30.03307989 -4.9375 29.5 C-16.85921042 27.15057621 -26.83320722 27.01603583 -37.5859375 33.578125 C-49.63888507 42.46767437 -52.09751069 54.21300768 -54.25 68.4375 C-56.24223977 85.75187473 -54.89208702 100.03202107 -45 115 C-41.24898361 119.55541043 -37.03282719 122.91867723 -32 126 C-31.34773437 126.4228125 -30.69546875 126.845625 -30.0234375 127.28125 C-22.12208334 132.37126092 -15.53890075 134.45582312 -6 133 C-1.95957177 131.10636572 1.43916329 128.66492106 5 126 C5.85207031 125.525625 6.70414063 125.05125 7.58203125 124.5625 C10.32658599 122.78895897 11.79156096 120.95829358 13.6875 118.3125 C14.74594208 116.84100735 15.84045122 115.393211 17 114 C17.66 114 18.32 114 19 114 C19.19980469 113.45472656 19.39960937 112.90945313 19.60546875 112.34765625 C21.57380811 109.03400932 24.37317616 106.85485734 27.3125 104.4375 C27.88162109 103.95603516 28.45074219 103.47457031 29.03710938 102.97851562 C32.21604464 100.32514486 35.39265633 98.05771012 39 96 C39.721875 95.443125 40.44375 94.88625 41.1875 94.3125 C43 93 43 93 45 93 C45.40577352 104.45183032 44.31115933 114.75480509 39 125 C38.41360285 126.20290104 37.82770782 127.40604692 37.2421875 128.609375 C30.74320264 141.68725696 23.54910226 148.81687794 10 155 C-5.75351511 159.56583592 -20.09765749 154.10042954 -34 147 C-34 146.34 -34 145.68 -34 145 C-34.72058594 144.89429688 -35.44117188 144.78859375 -36.18359375 144.6796875 C-48.51970279 141.702596 -61.69085943 127.94043117 -69 118 C-70.4375 115 -70.4375 115 -71 113 C-71.66 113 -72.32 113 -73 113 C-82.67277179 89.29597426 -82.95458111 70.3635076 -75 46 C-74.76410156 45.27683594 -74.52820313 44.55367187 -74.28515625 43.80859375 C-73.80002121 42.34269923 -73.30772524 40.87915679 -72.80859375 39.41796875 C-72.21306647 37.63714079 -71.64703856 35.84638144 -71.09765625 34.05078125 C-68.3927271 25.39283533 -65.61444767 18.01750089 -57.78125 12.8984375 C-55.24525772 11.61931859 -52.81357637 11.20587144 -50 11 C-50 10.34 -50 9.68 -50 9 C-46.79577601 7.76422459 -43.5906675 6.53101652 -40.3828125 5.3046875 C-38.49593605 4.57695455 -36.61220991 3.84032173 -34.7421875 3.0703125 C-24.6141882 -1.04021441 -10.56150713 -3.52050238 0 0 Z " fill="#2A2827" transform="translate(933,499)"/>
<path d="M0 0 C1.67542976 0.28604898 3.34385343 0.61781233 5 1 C4.85825834 5.47903635 4.40283215 8.01592841 1.25390625 11.2890625 C0.04170157 12.42092416 -1.19018881 13.53194657 -2.4375 14.625 C-3.09911133 15.22328613 -3.76072266 15.82157227 -4.44238281 16.43798828 C-12.15440179 23.26264106 -20.55145391 29.13547264 -29 35 C-35.54346974 39.5993954 -41.63704959 44.34139708 -47.51953125 49.765625 C-52.12535501 53.91449302 -57.04192298 57.68993985 -61.92578125 61.50390625 C-64.59156494 63.63526075 -65.89489044 64.68467133 -67 68 C-66.01 68.33 -65.02 68.66 -64 69 C-62.7109375 70.53125 -62.7109375 70.53125 -61.375 72.5 C-58.42277226 76.6023512 -55.08647057 80.04058067 -51.44140625 83.53125 C-48.78374894 86.21867307 -46.32864628 89.03539318 -43.85375977 91.89013672 C-40.88008969 95.27462991 -37.78314873 98.53988779 -34.6875 101.8125 C-29.4237707 107.39291319 -24.23304678 113.02090855 -19.1484375 118.765625 C-16.91178371 121.09174494 -14.52541922 122.99520566 -12 125 C-10.32256361 126.6558269 -8.65658121 128.32330854 -7 130 C-4.95804911 131.91848097 -2.88621935 133.80346574 -0.8125 135.6875 C6.98899566 142.79091745 6.98899566 142.79091745 7.1875 146.5625 C7 150 7 150 6 151 C3.25 151.4375 3.25 151.4375 0 151 C-2.1875 148.5625 -2.1875 148.5625 -3.41796875 146.890625 C-6.15847078 143.61555591 -9.58204284 141.14675337 -12.90625 138.48828125 C-16.15167368 135.87800993 -19.33049664 133.20127059 -22.5 130.5 C-26.50214585 127.09434481 -30.53650276 123.73974777 -34.625 120.4375 C-39.32355951 116.61736683 -43.78213766 112.58288744 -48.234375 108.48046875 C-51.00517601 105.99535768 -53.85051362 103.64555667 -56.75 101.3125 C-60.57561711 98.22802809 -64.08503078 95.0157346 -67.51953125 91.5078125 C-71.6622817 87.19940937 -71.6622817 87.19940937 -77.25 85.6875 C-79.90801858 85.70043665 -79.90801858 85.70043665 -81 87 C-81.66222196 91.05752405 -82.01609154 95.16140144 -82.4375 99.25 C-82.57019287 100.52818604 -82.70288574 101.80637207 -82.83959961 103.12329102 C-84.05834001 115.28941063 -84.69554117 127.47385272 -85.29614258 139.68334961 C-85.88172265 151.49052912 -86.77044084 163.24070545 -88 175 C-89.65 175.33 -91.3 175.66 -93 176 C-93.68304242 173.98682234 -94.35677143 171.97031812 -95.00390625 169.9453125 C-95.69066184 167.91467048 -96.45394441 165.90886757 -97.27734375 163.9296875 C-101.35263013 153.1803814 -101.63686847 142.55192066 -101.72314453 131.17919922 C-101.73587402 129.89674316 -101.74860352 128.61428711 -101.76171875 127.29296875 C-101.76131592 126.1536792 -101.76091309 125.01438965 -101.76049805 123.84057617 C-101.95608709 120.70417327 -102.35908917 117.91458879 -102.96166992 114.84716797 C-104.15261708 108.62880183 -104.54256912 102.4683632 -104.8515625 96.15234375 C-104.94719986 94.33712975 -104.94719986 94.33712975 -105.04476929 92.48524475 C-105.17754519 89.92971402 -105.30676735 87.37399641 -105.43261719 84.81811523 C-105.62190752 80.9998795 -105.82569251 77.18262469 -106.03125 73.36523438 C-106.66964799 61.10134096 -107.13876789 48.84774158 -107.2109375 36.56640625 C-107.22250885 35.50058823 -107.2340802 34.4347702 -107.2460022 33.33665466 C-107.23654876 21.19506966 -107.23654876 21.19506966 -103.6875 16.125 C-101.38654591 14.59103061 -99.77052137 14.30114363 -97 14 C-96.31421875 13.92394531 -95.6284375 13.84789062 -94.921875 13.76953125 C-89.75989389 13.44471271 -86.47030255 14.13967689 -82.43359375 17.44921875 C-80.05984752 20.01700419 -79.07857193 22.70751727 -78 26 C-77.608125 27.051875 -77.21625 28.10375 -76.8125 29.1875 C-74.9868119 37.75419032 -75.94548381 45.59707559 -78 54 C-67.92135553 47.38812331 -58.00175552 40.62342221 -48.26879883 33.51147461 C-43.5404941 30.07058216 -38.7287709 26.8690301 -33.75390625 23.79296875 C-29.66038765 21.12782685 -25.77526914 18.19501741 -21.8581543 15.27929688 C-15.99389057 10.93816993 -9.95013369 6.9007278 -3.8515625 2.8984375 C-1.20752474 1.27310351 -1.20752474 1.27310351 0 0 Z " fill="#2B2827" transform="translate(1107,490)"/>
<path d="M0 0 C2.60633421 0.43620968 5.21507698 0.85475565 7.82470703 1.27075195 C9.48502461 1.53994108 11.14518758 1.81008596 12.80517578 2.08129883 C13.58416229 2.20738022 14.3631488 2.33346161 15.16574097 2.46336365 C20.57086355 3.37433035 20.57086355 3.37433035 21.68798828 4.49145508 C23.14434199 4.71320441 24.60321784 4.91844205 26.06298828 5.11645508 C32.40444636 6.32435186 37.80112628 9.28751208 42.68798828 13.49145508 C43.49658203 15.71801758 43.49658203 15.71801758 43.68798828 17.49145508 C40.34749637 18.92165451 37.21609717 19.89055248 33.64111328 20.52661133 C32.71427734 20.69612305 31.78744141 20.86563477 30.83251953 21.0402832 C29.87732422 21.20979492 28.92212891 21.37930664 27.93798828 21.55395508 C26.02589845 21.89549038 24.11440002 22.24035934 22.20361328 22.58911133 C20.93952637 22.81352905 20.93952637 22.81352905 19.64990234 23.04248047 C17.69541648 23.30684428 17.69541648 23.30684428 16.68798828 24.49145508 C14.54843621 24.72918309 12.40834758 24.96284637 10.26611328 25.17504883 C7.79291865 25.47857726 5.43087936 25.94823853 3.00048828 26.49145508 C-2.31280516 27.62229688 -7.59674794 27.90252912 -13.01513672 28.14770508 C-17.46647683 28.61182585 -21.09415208 29.27359544 -24.31201172 32.49145508 C-25.34678384 36.23500346 -25.42872394 39.7988751 -25.40966797 43.66723633 C-25.40483398 45.40263672 -25.40483398 45.40263672 -25.39990234 47.1730957 C-25.39152344 48.3712793 -25.38314453 49.56946289 -25.37451172 50.80395508 C-25.37 52.02147461 -25.36548828 53.23899414 -25.36083984 54.4934082 C-25.34907749 57.49280733 -25.33263998 60.49210597 -25.31201172 63.49145508 C-24.14025391 63.47985352 -22.96849609 63.46825195 -21.76123047 63.45629883 C1.10030122 63.29555939 1.10030122 63.29555939 10.68798828 66.49145508 C10.68798828 67.15145508 10.68798828 67.81145508 10.68798828 68.49145508 C12.60611328 68.86270508 12.60611328 68.86270508 14.56298828 69.24145508 C28.22290448 72.29382938 28.22290448 72.29382938 31.68798828 77.49145508 C25.04068227 79.35526049 18.48186328 80.20207315 11.62548828 80.92895508 C9.32199332 81.18709402 7.01860996 81.44623055 4.71533203 81.70629883 C1.23255908 82.09574012 -2.25026904 82.48460849 -5.73339844 82.87084961 C-8.92804326 83.23071047 -12.12002979 83.60878388 -15.31201172 83.99145508 C-16.29049072 84.09772217 -17.26896973 84.20398926 -18.27709961 84.31347656 C-19.17549561 84.42377197 -20.0738916 84.53406738 -20.99951172 84.64770508 C-22.1809375 84.78402344 -22.1809375 84.78402344 -23.38623047 84.9230957 C-25.70272965 85.38310811 -25.70272965 85.38310811 -27.31201172 88.49145508 C-28.27481688 100.57028352 -28.57405358 114.41261695 -20.93701172 124.42895508 C-19.74295997 125.79573129 -18.53567417 127.15112414 -17.31201172 128.49145508 C-16.45478648 129.5932489 -15.60026189 130.69715389 -14.74951172 131.80395508 C-10.34098324 136.66464032 -5.73832595 138.88821871 0.40673828 140.77270508 C2.51467138 141.43684838 4.51938139 142.21641127 6.56298828 143.05395508 C10.55365927 144.58026749 14.57100748 145.29825781 18.78173828 145.96411133 C21.68798828 146.49145508 21.68798828 146.49145508 25.37548828 147.47973633 C30.26162875 148.72958517 35.17439723 149.1719361 40.18798828 149.61645508 C41.56470703 149.74600586 41.56470703 149.74600586 42.96923828 149.87817383 C45.20837328 150.08809273 47.44786555 150.29240417 49.68798828 150.49145508 C50.18298828 152.96645508 50.18298828 152.96645508 50.68798828 155.49145508 C46.62871632 159.44016321 43.28793277 160.13540439 37.81298828 160.24145508 C37.06049805 160.26747803 36.30800781 160.29350098 35.53271484 160.3203125 C33.98674917 160.36925399 32.44047336 160.40923087 30.89404297 160.44018555 C28.92058699 160.4860494 26.94841908 160.58118023 24.97705078 160.68286133 C7.92048843 161.26647439 -9.85687494 158.05635481 -23.56201172 147.42895508 C-32.44940232 138.98593401 -36.65969259 128.20367619 -39.31201172 116.49145508 C-39.6578833 115.30116699 -40.00375488 114.11087891 -40.36010742 112.88452148 C-41.85626557 106.09347336 -41.48205029 99.15706508 -41.37064552 92.24562454 C-41.33081696 89.67108773 -41.30671677 87.09682969 -41.28703308 84.52206421 C-41.22936766 77.20749999 -41.15207282 69.89335451 -41.04467773 62.5793457 C-40.97984502 58.08859579 -40.94005674 53.59817887 -40.91550255 49.10703659 C-40.90135041 47.40787721 -40.8778889 45.70876634 -40.84449196 44.00987625 C-40.67236171 35.13224246 -40.73745426 27.60751022 -45.17153931 19.60760498 C-47.56058169 15.17472984 -47.10109795 10.32732297 -46.31201172 5.49145508 C-44.28114462 1.86490668 -42.23076894 -0.12545414 -38.31201172 -1.50854492 C-25.4326608 -4.02680852 -12.76869424 -2.13877473 0 0 Z " fill="#2B2827" transform="translate(426.31201171875,496.508544921875)"/>
<path d="M0 0 C0.90924225 -0.00335861 1.8184845 -0.00671722 2.75527954 -0.01017761 C5.76671711 -0.01969122 8.77809911 -0.02163096 11.78955078 -0.02270508 C13.8807884 -0.02591745 15.9720258 -0.02928151 18.06326294 -0.03279114 C22.44973268 -0.03878349 26.83618271 -0.04063094 31.22265625 -0.04003906 C36.84395913 -0.03993745 42.46513568 -0.05358811 48.08640862 -0.07081127 C52.40667298 -0.08192897 56.72690678 -0.08395834 61.04718399 -0.08342934 C63.11962443 -0.08460986 65.19206566 -0.08903567 67.26449203 -0.0967617 C70.16339722 -0.10655653 73.06202791 -0.10368545 75.9609375 -0.09765625 C76.81721741 -0.10327576 77.67349731 -0.10889526 78.5557251 -0.11468506 C82.86191699 -0.09192136 86.18525756 0.1407848 90.10986328 2.14526367 C90.47614235 7.63944972 90.47614235 7.63944972 88.79736328 9.95776367 C80.00102841 16.1477771 61.25094758 13.473507 50.79736328 13.70776367 C48.97769433 13.75106981 47.15803277 13.79468741 45.33837891 13.83862305 C40.92895047 13.94442185 36.51944403 14.04602497 32.10986328 14.14526367 C32.09955582 15.05013519 32.08924835 15.95500671 32.07862854 16.88729858 C31.98031766 25.44903839 31.87775813 34.01071477 31.77052402 42.57234764 C31.71555209 46.97309428 31.66217586 51.37384779 31.61254883 55.7746582 C31.56452247 60.02816651 31.51217069 64.28160232 31.45692253 68.53502274 C31.43667086 70.15115152 31.41793156 71.76730005 31.40078926 73.38346481 C31.31885328 81.02351563 31.20942718 88.60108169 30.32579041 96.2003479 C30.0607756 98.58741008 30.01117603 100.93234247 30.04736328 103.33276367 C30.05582275 104.25855225 30.06428223 105.18434082 30.07299805 106.13818359 C30.08516357 107.13052002 30.0973291 108.12285645 30.10986328 109.14526367 C30.17780773 120.59863353 30.00068784 132.03928691 29.73754883 143.48925781 C29.69429783 145.37594091 29.65261597 147.26266067 29.61254883 149.14941406 C29.55501941 151.82914859 29.49157359 154.5086773 29.42626953 157.18823242 C29.40955704 157.98835251 29.39284454 158.7884726 29.37562561 159.61283875 C29.04382024 172.21130671 29.04382024 172.21130671 26.10986328 175.14526367 C23.60986328 174.95776367 23.60986328 174.95776367 21.10986328 174.14526367 C19.11302134 171.15000075 18.84381072 170.42635509 18.68626404 167.04917908 C18.6428891 166.21597137 18.59951416 165.38276367 18.55482483 164.52430725 C18.51683273 163.61281418 18.47884064 162.70132111 18.43969727 161.76220703 C18.36851685 160.31726868 18.36851685 160.31726868 18.29589844 158.84313965 C18.14040112 155.64081657 17.99812653 152.43804772 17.85595703 149.23510742 C17.74988302 146.99235934 17.64302344 144.74964828 17.53541565 142.50697327 C17.25302845 136.57430735 16.98195548 130.64117422 16.7130127 124.70788574 C16.49527981 119.94295307 16.26998322 115.17839385 16.04412746 110.41384029 C15.1563474 91.68409012 14.28476822 72.95398993 13.54370117 54.21777344 C13.50083953 53.15891654 13.45797789 52.10005964 13.41381741 51.00911617 C13.08036123 42.38458982 13.00169324 33.77482954 13.10986328 25.14526367 C12.57321045 25.32702148 12.03655762 25.5087793 11.48364258 25.69604492 C-3.17121674 30.550399 -19.05838312 35.34173781 -33.82763672 28.45776367 C-37.77517444 26.25963835 -40.37323268 23.91489949 -42.89013672 20.14526367 C-43.66081479 17.0412913 -43.52710974 14.27325619 -42.89013672 11.14526367 C-39.42022056 5.99635582 -34.74197033 4.37927102 -28.89013672 3.14526367 C-24.46938391 2.48950801 -20.03149142 2.02025984 -15.58544922 1.57495117 C-2.03166543 -0.0010702 -2.03166543 -0.0010702 0 0 Z " fill="#2C2928" transform="translate(518.89013671875,490.854736328125)"/>
<path d="M0 0 C5.16924289 3.19505968 8.19520811 7.12931893 10.01953125 12.94140625 C10.33695525 16.81614411 10.08938784 20.57266469 9.76953125 24.44140625 C9.70378906 25.45460938 9.63804687 26.4678125 9.5703125 27.51171875 C9.40662716 29.99038253 9.22264524 32.46571495 9.01953125 34.94140625 C7.20703125 35.56640625 7.20703125 35.56640625 5.01953125 35.94140625 C2.01953125 33.94140625 2.01953125 33.94140625 0.6328125 31.546875 C-1.19028038 28.60255793 -2.94712777 27.19921998 -5.79296875 25.25390625 C-6.62441406 24.67253906 -7.45585937 24.09117187 -8.3125 23.4921875 C-16.78783772 18.5658199 -26.4339478 18.89226085 -35.79296875 21.00390625 C-42.43372909 23.04945433 -46.59118079 27.1041268 -50.98046875 32.31640625 C-52.76051272 36.98902167 -53.02107654 41.45550986 -51.06640625 46.125 C-46.92065702 53.19952046 -41.15153437 57.08276188 -33.91796875 60.62890625 C-22.78386856 66.36294723 -4.12245293 77.51545372 0.01953125 89.94140625 C0.59703125 90.45703125 1.17453125 90.97265625 1.76953125 91.50390625 C5.13113571 95.14564441 6.98631919 99.45312521 9.01953125 103.94140625 C9.37789063 104.68519531 9.73625 105.42898438 10.10546875 106.1953125 C13.50839859 116.41864445 14.51145221 132.97585357 9.89453125 142.81640625 C5.06330618 150.58135573 -2.81335491 155.00231373 -11.390625 157.69921875 C-23.52500273 160.50097751 -41.65892344 160.87994948 -52.98046875 154.94140625 C-55.90232007 152.2720606 -58.31964062 149.55085945 -59.98046875 145.94140625 C-59.72732208 142.55618996 -59.40292591 141.36386341 -56.98046875 138.94140625 C-52.98826979 138.08001892 -49.35403814 138.14463824 -45.78515625 140.21484375 C-43.81437829 141.75100148 -41.89776436 143.33939925 -39.98046875 144.94140625 C-34.28267375 148.24012967 -27.42218589 147.3817159 -21.16796875 146.25390625 C-14.0029399 143.30360025 -10.29974216 136.65014918 -6.98046875 129.94140625 C-3.66401246 120.55787826 -4.19029676 111.07817068 -7.98046875 101.94140625 C-11.76618038 94.41995938 -17.22210896 89.78007629 -23.98046875 84.94140625 C-24.55587402 84.52632812 -25.1312793 84.11125 -25.72412109 83.68359375 C-32.54557595 78.78889129 -39.43953887 74.18142479 -46.76074219 70.06542969 C-54.11688264 65.9261848 -60.12037098 62.05470298 -64.98046875 54.94140625 C-65.42777344 54.35488281 -65.87507813 53.76835938 -66.3359375 53.1640625 C-70.50082539 46.66797456 -69.728121 38.32073396 -68.98046875 30.94140625 C-68.07427031 27.59864362 -66.80594891 24.87228097 -64.98046875 21.94140625 C-64.38234375 20.91015625 -63.78421875 19.87890625 -63.16796875 18.81640625 C-55.24724163 8.40630774 -47.41414555 4.62447325 -34.73046875 2.25390625 C-32.57917815 1.8346085 -30.42812465 1.41409192 -28.27734375 0.9921875 C-27.33213867 0.81341064 -26.38693359 0.63463379 -25.41308594 0.45043945 C-17.10282611 -1.28850994 -8.29339149 -2.94562136 0 0 Z " fill="#2C2927" transform="translate(143.98046875,503.05859375)"/>
<path d="M0 0 C7.07682382 2.21701327 11.78047426 7.05912191 16 13 C17.76681059 16.85977576 18.88154151 20.77051268 19.9375 24.875 C20.22689453 25.88691406 20.51628906 26.89882813 20.81445312 27.94140625 C22.46223549 33.9410241 23.4214747 39.71108627 23.79125977 45.92236328 C23.77747786 47.98843705 23.77747786 47.98843705 25 49 C25.1328125 50.8125 25.1328125 50.8125 25.125 53 C25.12886719 54.0828125 25.12886719 54.0828125 25.1328125 55.1875 C25 57 25 57 24 58 C23.80522646 59.95832095 23.61595056 61.91736995 23.45678711 63.87890625 C22.26121627 77.9490953 18.66092566 88.22464644 8 98 C2.09502677 102.78206029 -4.44237159 106.4808055 -11.03515625 110.22265625 C-14.7972918 112.4779549 -18.27263732 115.0406937 -21.74609375 117.71484375 C-24.37507358 119.21386344 -26.02143653 119.25740672 -29 119 C-32.38754755 112.2249049 -28.52431542 100.90575276 -27.22753906 93.65161133 C-25.80705057 85.42418967 -24.97438706 77.13797014 -24.17822266 68.82958984 C-23.48576358 62.02529485 -22.2704217 55.5643572 -20.65087891 48.92163086 C-19.83952212 45.27965537 -19.56487996 41.91439108 -19.4375 38.1875 C-19.1605068 32.77505286 -18.47152942 28.19363326 -17 23 C-16.72350043 21.16751268 -16.45309368 19.33409973 -16.1875 17.5 C-14.72233121 9.1819945 -9.73898402 -1.49830523 0 0 Z " fill="#B66E57" transform="translate(318,521)"/>
<path d="M0 0 C1.28583984 -0.04640625 1.28583984 -0.04640625 2.59765625 -0.09375 C4.9375 0.5 4.9375 0.5 6.54296875 2.4765625 C8.34053473 6.37380639 9.81296547 10.31144889 11.1875 14.375 C11.46851563 15.15230469 11.74953125 15.92960937 12.0390625 16.73046875 C12.29945313 17.49746094 12.55984375 18.26445312 12.828125 19.0546875 C13.18438965 20.08311768 13.18438965 20.08311768 13.54785156 21.13232422 C14.44719371 26.59712381 12.59046726 31.88054675 10.91088867 37.03564453 C8.75147929 44.43060136 8.35145148 51.26218705 8.36328125 58.9296875 C8.34163711 60.93933754 8.31998946 62.94898755 8.29813671 64.95863533 C8.27285148 67.7298375 8.26532454 70.5009799 8.25756836 73.27227783 C8.24001894 78.14804552 8.19292697 83.02362697 8.14750671 87.89920044 C8.12521591 90.48352241 8.10927823 93.06790949 8.10066223 95.65231323 C8.04249482 105.37222574 8.04249482 105.37222574 7.42602539 109.4753418 C6.55093901 115.44808976 6.87713869 121.50804855 6.9453125 127.52734375 C6.95481878 128.88439856 6.96341838 130.24145999 6.97116089 131.598526 C7.00449525 137.32289825 7.0462379 143.04710835 7.10888672 148.77124023 C7.14678279 152.28826547 7.1696298 155.80512913 7.18319321 159.32232857 C7.1950283 161.29253291 7.22318349 163.26261782 7.2517395 165.23265076 C7.27195882 172.34327946 6.64470171 177.90481478 3.9375 184.5 C-2.02657515 182.28477209 -6.18396925 180.40098804 -9.0625 174.5 C-10.3595975 170.67978135 -10.21025828 166.79899215 -10.1875 162.8125 C-10.19330078 161.77899414 -10.19330078 161.77899414 -10.19921875 160.72460938 C-10.18919335 155.62669335 -10.18919335 155.62669335 -9.0625 154.5 C-8.96366664 153.03521494 -8.93170711 151.56577042 -8.9296875 150.09765625 C-8.92839844 149.20755859 -8.92710937 148.31746094 -8.92578125 147.40039062 C-8.92964844 146.46388672 -8.93351563 145.52738281 -8.9375 144.5625 C-8.93363281 143.62986328 -8.92976562 142.69722656 -8.92578125 141.73632812 C-8.92707031 140.84494141 -8.92835938 139.95355469 -8.9296875 139.03515625 C-8.93081543 138.214104 -8.93194336 137.39305176 -8.93310547 136.54711914 C-8.9331216 134.43383976 -8.9331216 134.43383976 -10.0625 132.5 C-10.16024794 130.41854396 -10.19225741 128.33374453 -10.1875 126.25 C-10.19007813 125.13109375 -10.19265625 124.0121875 -10.1953125 122.859375 C-10.0625 119.5 -10.0625 119.5 -9.55732727 116.96073914 C-8.87860676 112.21388144 -8.96525495 107.5569779 -9.01245117 102.76879883 C-9.01873032 101.69984879 -9.02500946 100.63089874 -9.03147888 99.52955627 C-9.04530055 97.21494582 -9.06122954 94.9003472 -9.07903099 92.58576393 C-9.10569685 88.92572313 -9.12354761 85.26574296 -9.13850403 81.6056366 C-9.18124251 71.20157936 -9.22919407 60.79764372 -9.30932617 50.39379883 C-9.35773104 44.02620425 -9.38680832 37.65877577 -9.40307045 31.29102135 C-9.41299286 28.86242319 -9.4302401 26.43384379 -9.45485497 24.00535011 C-9.48844491 20.61769716 -9.49747682 17.23081581 -9.50073242 13.84301758 C-9.51668457 12.83464844 -9.53263672 11.8262793 -9.54907227 10.78735352 C-9.54501877 9.86634354 -9.54096527 8.94533356 -9.53678894 7.99641418 C-9.54177493 7.19579465 -9.54676092 6.39517511 -9.551898 5.57029438 C-9.0625 3.5 -9.0625 3.5 -7.18739796 1.74827099 C-4.63594708 0.24942155 -2.94673009 0.03555632 0 0 Z " fill="#2A2827" transform="translate(210.0625,480.5)"/>
<path d="M0 0 C1.03125 -0.0103125 2.0625 -0.020625 3.125 -0.03125 C6.65272041 0.62061138 7.79489039 1.72713803 10 4.5 C11.1875 7.1875 11.1875 7.1875 12 9.5 C12.495 9.995 12.495 9.995 13 10.5 C14.04373087 22.67211591 14.13957862 36.8724464 10 48.5 C7.69921875 51.18359375 7.69921875 51.18359375 5 53.5 C3.88625 54.57507813 3.88625 54.57507813 2.75 55.671875 C-0.99237226 58.15970202 -4.63385404 58.88527629 -9 59.75 C-9.7940625 59.92273438 -10.588125 60.09546875 -11.40625 60.2734375 C-15.32335823 61.09603023 -18.97472715 61.72723314 -23 61.5 C-23 59.85 -23 58.2 -23 56.5 C-22.34 56.5 -21.68 56.5 -21 56.5 C-21.05800781 54.96859375 -21.05800781 54.96859375 -21.1171875 53.40625 C-21.00060776 49.52025857 -20.32449303 46.67727789 -19.125 43 C-17.61214675 38.01338268 -16.62637532 33.30389375 -16.0625 28.125 C-15.39494622 22.48328446 -14.27423761 17.23151206 -12.625 11.8125 C-12.32928101 10.80533936 -12.32928101 10.80533936 -12.02758789 9.77783203 C-9.83343167 2.93080734 -7.34505145 -0.07345051 0 0 Z " fill="#B46D56" transform="translate(651,499.5)"/>
<path d="M0 0 C1.98 0 3.96 0 6 0 C8.35511267 7.59177496 10.66209982 15.19653323 12.9375 22.8125 C15.20540114 30.40113563 17.53455677 37.96764792 19.921875 45.51953125 C23.38069171 56.6854939 23.38069171 56.6854939 23 61 C22 62 22 62 19.4375 62.0625 C18.633125 62.041875 17.82875 62.02125 17 62 C17 61.34 17 60.68 17 60 C16.13761719 59.89171875 15.27523437 59.7834375 14.38671875 59.671875 C10.82717596 58.96571426 8.06345434 57.84869491 4.8125 56.25 C3.78769531 55.76015625 2.76289062 55.2703125 1.70703125 54.765625 C-1.50235574 52.67234517 -2.60001238 51.57564405 -4 48 C-4.40669338 44.49154542 -4.37622319 41.02786756 -4.3125 37.5 C-4.3026709 36.49348389 -4.2928418 35.48696777 -4.28271484 34.44995117 C-4.16455503 27.38079182 -3.76330333 20.3531038 -3.125 13.3125 C-3.04677002 12.43464844 -2.96854004 11.55679688 -2.88793945 10.65234375 C-2.80374756 9.83507812 -2.71955566 9.0178125 -2.6328125 8.17578125 C-2.55949707 7.46333252 -2.48618164 6.75088379 -2.41064453 6.0168457 C-1.95113013 3.75997981 -1.10951943 2.00892397 0 0 Z " fill="#B16C55" transform="translate(766,524)"/>
<path d="M0 0 C0.33 0 0.66 0 1 0 C1.01030746 0.72805344 1.02061493 1.45610687 1.03123474 2.20622253 C1.1293305 9.07717937 1.23186183 15.94805734 1.33933926 22.81887341 C1.39443507 26.35097936 1.44783313 29.88309378 1.49731445 33.4152832 C1.55431367 37.47876668 1.61876325 41.54210262 1.68359375 45.60546875 C1.70030624 46.8702153 1.71701874 48.13496185 1.73423767 49.43803406 C1.75418289 50.61888077 1.77412811 51.79972748 1.79467773 53.01635742 C1.81022202 54.05338303 1.8257663 55.09040863 1.84178162 56.15885925 C1.99256904 58.86656164 2.39510882 61.36022509 3 64 C1.68 64 0.36 64 -1 64 C-1.84621725 56.23304376 -2.13572505 48.57898254 -2.09765625 40.76953125 C-2.0962413 39.65309738 -2.09482635 38.53666351 -2.09336853 37.38639832 C-2.08782367 33.86173691 -2.0752818 30.33714182 -2.0625 26.8125 C-2.05747786 24.40559988 -2.05291621 21.99869876 -2.04882812 19.59179688 C-2.03787238 13.72784241 -2.02119022 7.86392594 -2 2 C-1.34 2 -0.68 2 0 2 C0 1.34 0 0.68 0 0 Z " fill="#A5654F" transform="translate(384,545)"/>
<path d="M0 0 C1.57394531 -0.04253906 1.57394531 -0.04253906 3.1796875 -0.0859375 C6.79289858 0.47952524 7.91399675 1.52041835 10.125 4.375 C10.875 7.125 10.875 7.125 11.125 9.375 C10.135 9.87 10.135 9.87 9.125 10.375 C5.125 3.625 5.125 3.625 5.125 1.375 C1.07753049 1.63403234 1.07753049 1.63403234 -2.875 2.375 C-4.18359649 4.07212207 -4.18359649 4.07212207 -4.875 6.375 C-6.45680879 8.45525657 -8.16562833 10.39572754 -9.875 12.375 C-8.225 11.715 -6.575 11.055 -4.875 10.375 C-6.32883624 14.49420268 -8.44162319 17.76418279 -10.875 21.375 C-11.205 22.365 -11.535 23.355 -11.875 24.375 C-12.865 24.375 -13.855 24.375 -14.875 24.375 C-13.97721723 14.49938953 -11.95497073 0.14614879 0 0 Z " fill="#A66650" transform="translate(650.875,499.625)"/>
<path d="M0 0 C0.66 0 1.32 0 2 0 C5.31584636 8.15308104 7.58315354 16.52591174 9.80517578 25.02978516 C10.92546691 29.27040554 12.09018968 33.36077654 13.74609375 37.42578125 C14.99490711 40.9854829 15.08683009 41.66151855 14 45 C14 44.34 14 43.68 14 43 C13.01 43 12.02 43 11 43 C10.89042969 42.34515625 10.78085937 41.6903125 10.66796875 41.015625 C9.60788181 34.91366113 8.2746784 28.94576891 6.73046875 22.94921875 C5.66854627 18.66177771 4.81615601 14.34002962 4 10 C3.34 10 2.68 10 2 10 C0.68373308 6.38026598 0 3.90432869 0 0 Z " fill="#7C4F40" transform="translate(773,535)"/>
<path d="M0 0 C0.66 0 1.32 0 2 0 C3.26519137 4.40928171 3.02657949 8.4571606 2.8125 13 C2.79380859 13.80695312 2.77511719 14.61390625 2.75585938 15.4453125 C2.57344299 19.32406087 2.45596465 21.3932803 0.07421875 24.5625 C-2 26 -2 26 -4 26 C-2.22972591 19.42469624 -2.22972591 19.42469624 -0.94140625 17.04296875 C1.318706 12.13824382 0.11614456 6.10237515 -1 1 C-0.67 0.67 -0.34 0.34 0 0 Z " fill="#8D5846" transform="translate(727,601)"/>
<path d="M0 0 C1.04027344 -0.01933594 2.08054687 -0.03867187 3.15234375 -0.05859375 C6.72205995 0.54993505 7.86624352 1.61374167 10.0625 4.4375 C10.8125 7.1875 10.8125 7.1875 11.0625 9.4375 C10.0725 9.9325 10.0725 9.9325 9.0625 10.4375 C5.0625 3.6875 5.0625 3.6875 5.0625 1.4375 C-0.78005219 1.52509393 -0.78005219 1.52509393 -5.1875 4.875 C-5.765 5.720625 -6.3425 6.56625 -6.9375 7.4375 C-9.1875 8.75 -9.1875 8.75 -10.9375 9.4375 C-8.93385599 2.50180918 -7.47315925 0.00923753 0 0 Z " fill="#7E5040" transform="translate(650.9375,499.5625)"/>
<path d="M0 0 C1.32 0.33 2.64 0.66 4 1 C3.773125 2.216875 3.54625 3.43375 3.3125 4.6875 C2.88023657 7.97620691 2.93936847 8.87346463 4.4375 12 C5.2109375 12.99 5.2109375 12.99 6 14 C4.02 14.66 2.04 15.32 0 16 C-0.66 15.34 -1.32 14.68 -2 14 C-1.34 14 -0.68 14 0 14 C0 9.38 0 4.76 0 0 Z " fill="#9D614C" transform="translate(713,661)"/>
<path d="M0 0 C0.66 0.33 1.32 0.66 2 1 C-3.94 6.94 -9.88 12.88 -16 19 C-16 14.68381834 -13.86729652 13.07210341 -11 10 C-10.34 10 -9.68 10 -9 10 C-8.74476563 9.40703125 -8.48953125 8.8140625 -8.2265625 8.203125 C-6.88183502 5.78775462 -5.50785633 4.48788294 -3.375 2.75 C-2.74335937 2.22921875 -2.11171875 1.7084375 -1.4609375 1.171875 C-0.73777344 0.59179688 -0.73777344 0.59179688 0 0 Z " fill="#43312B" transform="translate(961,603)"/>
<path d="M0 0 C2.70482125 2.70482125 3.5076736 5.82543681 4.6875 9.375 C5.04424805 10.38433594 5.04424805 10.38433594 5.40820312 11.4140625 C7.46407193 17.53946634 7.46407193 17.53946634 6 21 C6 20.34 6 19.68 6 19 C5.01 19 4.02 19 3 19 C2.87882813 18.28714844 2.75765625 17.57429687 2.6328125 16.83984375 C1.68936031 11.44765159 0.62637791 6.22764328 -1 1 C-0.67 0.67 -0.34 0.34 0 0 Z " fill="#895545" transform="translate(781,559)"/>
<path d="M0 0 C0.66 0 1.32 0 2 0 C6.5409319 5.20545852 7.82893911 9.1420136 8 16 C4.70181039 14.35090519 4.129244 10.72914036 2.875 7.4375 C2.59785156 6.72658203 2.32070313 6.01566406 2.03515625 5.28320312 C1.35057404 3.52453504 0.67448365 1.76256576 0 0 Z " fill="#935B49" transform="translate(703,649)"/>
<path d="M0 0 C0.33 0 0.66 0 1 0 C1.19517554 1.93674185 1.38087873 3.87444009 1.5625 5.8125 C1.66691406 6.89144531 1.77132812 7.97039063 1.87890625 9.08203125 C2 12 2 12 1 15 C0.01 15.33 -0.98 15.66 -2 16 C-1.34 10.72 -0.68 5.44 0 0 Z " fill="#8C5746" transform="translate(635,525)"/>
<path d="M0 0 C0 3.86695678 -1.41909971 6.5088452 -3 10 C-3.99 10 -4.98 10 -6 10 C-5.67 7.36 -5.34 4.72 -5 2 C-4.34 2.66 -3.68 3.32 -3 4 C-2.01 2.68 -1.02 1.36 0 0 Z " fill="#815141" transform="translate(642,514)"/>
<path d="M0 0 C0.33 0 0.66 0 1 0 C1.75 3.25 1.75 3.25 2 7 C0.1875 9.4375 0.1875 9.4375 -2 11 C-2.66 11 -3.32 11 -4 11 C-2.95902388 7.13351728 -1.96301592 3.50538557 0 0 Z " fill="#9E614D" transform="translate(727,616)"/>
<path d="M0 0 C0 0.66 0 1.32 0 2 C-1.4317616 2.69937202 -2.87067032 3.38412718 -4.3125 4.0625 C-5.51326172 4.63677734 -5.51326172 4.63677734 -6.73828125 5.22265625 C-9 6 -9 6 -12 5 C-4.74193548 0 -4.74193548 0 0 0 Z " fill="#AB6852" transform="translate(977,585)"/>
<path d="M0 0 C0.66 0.33 1.32 0.66 2 1 C2 1.99 2 2.98 2 4 C2.66 4 3.32 4 4 4 C3.67 5.32 3.34 6.64 3 8 C3 7.34 3 6.68 3 6 C1.68 6 0.36 6 -1 6 C-1.042721 4.33388095 -1.04063832 2.66617115 -1 1 C-0.67 0.67 -0.34 0.34 0 0 Z " fill="#945C49" transform="translate(600,651)"/>
<path d="M0 0 C1.875 0.625 1.875 0.625 4 2 C5.25 5.125 5.25 5.125 6 8 C5.01 8.495 5.01 8.495 4 9 C0 2.25 0 2.25 0 0 Z " fill="#985E4B" transform="translate(656,501)"/>
<path d="M0 0 C0.33 0 0.66 0 1 0 C1.66 4.29 2.32 8.58 3 13 C2.01 13 1.02 13 0 13 C0 8.71 0 4.42 0 0 Z " fill="#8F5947" transform="translate(384,596)"/>
<path d="M0 0 C-1.28519565 2.86697492 -2.57129254 4.97607712 -5 7 C-5.66 7 -6.32 7 -7 7 C-3.86206897 0 -3.86206897 0 0 0 Z " fill="#9B5F4C" transform="translate(101,528)"/>
<path d="M0 0 C0 0.99 0 1.98 0 3 C-5.94 2.01 -5.94 2.01 -12 1 C-12 0.67 -12 0.34 -12 0 C-10.37585622 -0.19477739 -8.75063577 -0.38059458 -7.125 -0.5625 C-6.22007812 -0.66691406 -5.31515625 -0.77132813 -4.3828125 -0.87890625 C-2 -1 -2 -1 0 0 Z " fill="#8C5746" transform="translate(460,501)"/>
<path d="M0 0 C0.33 0 0.66 0 1 0 C1 2.64 1 5.28 1 8 C0.67 7.34 0.34 6.68 0 6 C-0.99 5.67 -1.98 5.34 -3 5 C-3 4.01 -3 3.02 -3 2 C-2.34 2 -1.68 2 -1 2 C-0.67 1.34 -0.34 0.68 0 0 Z " fill="#895644" transform="translate(730,627)"/>
</svg>
